<?xml version="1.0" encoding="utf-8"?>
<!-- Generator: Adobe Illustrator 21.1.0, SVG Export Plug-In . SVG Version: 6.00 Build 0)  -->
<svg version="1.1" xmlns="http://www.w3.org/2000/svg" xmlns:xlink="http://www.w3.org/1999/xlink" x="0px" y="0px"
	 viewBox="0 0 208.6 128.6" style="enable-background:new 0 0 208.6 128.6;" xml:space="preserve">
<style type="text/css">
	.st0{fill:#E0E0E0;}
	.st1{fill:#EEEEEE;}
	.st2{fill:#757575;}
	.st3{fill:none;stroke:#757575;stroke-miterlimit:10;}
</style>
<g id="Layer_5">
	<g>
		<path class="st0" d="M23.4,44c0,0.5,0,1,0,1.5c0,0.4,0,0.8,0,1.2c0.1,0,0.1-0.1,0.2-0.1C23.5,45.7,23.5,44.8,23.4,44z"/>
		<path class="st0" d="M161.1,124.7c-6.9,0-13.3-1.4-19.2-4c-11.8,3-24.9,4.7-38.8,4.7c-14.5,0-28.3-1.9-40.5-5.2
			c-5.8,2.8-12.4,4.4-19.4,4.4c-20.3,0-37.2-13.4-41.8-31.5c-0.7-2.6-1.1-5.4-1.2-8.2c0,0.5-0.1,0.9-0.1,1.4c0,3.4,0.4,6.7,1.2,9.8
			c4.6,18.1,21.6,31.5,41.8,31.5c7,0,13.6-1.6,19.4-4.4c12.2,3.3,26,5.2,40.5,5.2c13.8,0,27-1.7,38.8-4.7c5.9,2.5,12.4,4,19.2,4
			c25.8,0,46.7-20.1,46.7-44.8c0-0.6,0-1.1,0-1.7C207,105.4,186.4,124.7,161.1,124.7z"/>
		<path class="st1" d="M43.1,124.7c7,0,13.6-1.6,19.4-4.4c12.2,3.3,26,5.2,40.5,5.2c13.8,0,27-1.7,38.8-4.7c5.9,2.5,12.4,4,19.2,4
			c25.3,0,45.9-19.4,46.7-43.5c0-0.4,0-0.9,0-1.3c0-2.2-0.2-4.4-0.5-6.5c-3-19.8-19.4-35.4-40.1-37.9c-5.5-16.8-21.8-29-41.1-29
			c-10.2,0-19.5,3.4-26.9,9C91.3,6.7,79.6,1.1,66.5,1.1c-23.8,0-43.1,18.5-43.1,41.3c0,0.5,0,1,0,1.5c0,0.9,0.1,1.7,0.2,2.6
			c-0.1,0-0.1,0.1-0.2,0.1C9.6,53.5,0.1,67.4,0.1,83.4c0,0.5,0,1.1,0.1,1.6c0.1,2.8,0.5,5.6,1.2,8.2
			C5.9,111.3,22.9,124.7,43.1,124.7z"/>
	</g>
	<path class="st1" d="M1.5,93"/>
</g>
<g id="Layer_3">
	<circle class="st2" cx="78.1" cy="59.1" r="4.5"/>
	<circle class="st2" cx="125.1" cy="59.1" r="4.5"/>
</g>
<g id="Layer_6">
	<line class="st3" x1="94" y1="78.1" x2="109.2" y2="78.1"/>
</g>
<g id="Layer_7">
</g>
<g id="Layer_8">
</g>
</svg>
